<svg width="79" height="90" viewBox="0 0 79 90" fill="none" xmlns="http://www.w3.org/2000/svg">
<path d="M2 23.123L39.3918 2.00178M40.2242 87.8994L76.3556 66.7782M38.6969 2L77 23.335M2.53001 66.665L40.8331 88M76.6477 22.3433V67.402M2.28436 22.3433L2.28436 67.402" stroke="#303440" stroke-width="3"/>
<g clip-path="url(#clip0_307_13)">
<path d="M43.7967 25.2736C39.8206 23.7754 36.0629 23.0263 32.5238 23.0263C29.0283 23.0263 26.2974 23.754 24.3312 25.2094C22.365 26.6648 21.3819 28.6766 21.3819 31.245C21.3819 34.3698 23.0422 36.7883 26.3629 38.5006C27.8485 39.2283 29.4652 39.9132 31.2129 40.5552C33.0044 41.1545 34.7958 41.8394 36.5873 42.6099C38.3787 43.3804 40.0172 44.2579 41.5028 45.2425C42.9884 46.227 44.19 47.5968 45.1075 49.3518C46.0251 51.0641 46.4839 53.2686 46.4839 55.9653C46.4839 58.6193 45.7193 60.888 44.19 62.7714C42.6607 64.6549 40.8037 65.9391 38.619 66.624C36.478 67.266 34.2931 67.5229 31.4093 67.5229C26.035 67.5229 21.1197 66.2815 17.3184 63.6704L17.6461 63.1567C19.088 64.2696 20.9449 65.19 23.217 65.9177C25.5328 66.6025 27.8922 66.945 30.2954 66.945C33.8346 66.945 36.8494 66.1531 39.34 64.5693C41.8742 62.9427 43.1413 60.5669 43.1413 57.4421C43.1413 54.0177 41.481 51.3423 38.1602 49.416C36.6747 48.5599 35.0361 47.768 33.2447 47.0403C31.497 46.3126 29.7274 45.5635 27.9359 44.793C26.1445 43.9797 24.506 43.0808 23.0204 42.0962C19.6997 39.956 18.0393 36.9167 18.0393 32.9786C18.0393 29.8538 19.1098 27.3283 21.2508 25.402C23.3918 23.4329 27.1274 22.0417 31.4093 22.0417C35.735 22.0417 39.6021 23.1761 44.0589 24.6315L43.7967 25.2736Z" fill="#303440"/>
<path d="M33.0476 68.7576L31.9336 71.4329V20.6011L34.0746 23.8115L61.3395 65.3545V20.6011H62.1915V71.4329H60.3561L33.0476 28.6272V68.7576Z" fill="#303440"/>
</g>
<defs>
<clipPath id="clip0_307_13">
<rect width="49.1554" height="53.5072" fill="white" transform="translate(15.0242 19.3663)"/>
</clipPath>
</defs>
</svg>
