<svg width="75" height="86" viewBox="0 0 75 86" fill="none" xmlns="http://www.w3.org/2000/svg">
<path d="M41.7966 23.2736C37.8205 21.7754 34.0629 21.0263 30.5237 21.0263C27.0282 21.0263 24.2973 21.754 22.3311 23.2094C20.3649 24.6648 19.3818 26.6766 19.3818 29.245C19.3818 32.3698 21.0421 34.7883 24.3629 36.5006C25.8484 37.2283 27.4651 37.9131 29.2129 38.5552C31.0043 39.1545 32.7957 39.8394 34.5872 40.6099C36.3786 41.3804 38.0171 42.2579 39.5027 43.2425C40.9883 44.227 42.1899 45.5968 43.1075 47.3518C44.025 49.064 44.4838 51.2685 44.4838 53.9653C44.4838 56.6193 43.7192 58.888 42.1899 60.7714C40.6606 62.6549 38.8036 63.939 36.6189 64.6239C34.4779 65.266 32.293 65.5229 29.4093 65.5229C24.0349 65.5229 19.1196 64.2815 15.3183 61.6703L15.646 61.1567C17.0879 62.2696 18.9448 63.1899 21.2169 63.9176C23.5327 64.6025 25.8921 64.945 28.2953 64.945C31.8345 64.945 34.8493 64.1531 37.3399 62.5693C39.8741 60.9426 41.1412 58.5669 41.1412 55.4421C41.1412 52.0176 39.4809 49.3423 36.1602 47.416C34.6746 46.5599 33.0361 45.768 31.2446 45.0403C29.4969 44.3126 27.7273 43.5635 25.9358 42.793C24.1444 41.9797 22.5059 41.0808 21.0203 40.0962C17.6996 37.9559 16.0392 34.9167 16.0392 30.9786C16.0392 27.8538 17.1097 25.3282 19.2507 23.402C21.3917 21.4329 25.1273 20.0417 29.4093 20.0417C33.7349 20.0417 37.6021 21.1761 42.0588 22.6315L41.7966 23.2736Z" fill="black"/>
<path d="M31.0476 66.7577L29.9336 69.433V18.6012L32.0746 21.8116L59.3395 63.3546V18.6012H60.1915V69.433H58.3561L31.0476 26.6272V66.7577Z" fill="black"/>
</svg>
